<svg width="216" height="103" viewBox="0 0 216 103" fill="none" xmlns="http://www.w3.org/2000/svg">
<path d="M213.796 3.58527C214.725 2.25974 213.776 0.438141 212.158 0.438141H187.158C186.506 0.438141 185.894 0.756477 185.52 1.29101L116.934 99.2449C116.006 100.57 116.954 102.392 118.572 102.392H143.572C144.225 102.392 144.836 102.074 145.21 101.539L213.796 3.58527Z" fill="#13DA92"/>
<path d="M170.482 3.64079C171.474 2.32273 170.533 0.438141 168.884 0.438141H142.222C141.594 0.438141 141.002 0.73344 140.624 1.2355L128.701 17.0789C127.709 18.3969 128.649 20.2815 130.299 20.2815H156.96C157.589 20.2815 158.18 19.9862 158.558 19.4842L170.482 3.64079Z" fill="#13DA92"/>
<path d="M2.07366 0.438141C0.529357 0.438141 -0.375643 2.17658 0.510113 3.44161L69.224 101.578C69.5812 102.088 70.1648 102.392 70.7876 102.392H96.0102L96.0157 102.392H100.542C101.164 102.392 101.747 102.089 102.104 101.58L139.306 48.6045C140.194 47.3398 139.289 45.5989 137.744 45.5989H112.497C111.875 45.5989 111.292 45.9018 110.935 46.4107L88.1288 78.8866C86.9331 80.5892 84.4095 80.5875 83.2162 78.8832L28.8599 1.25208C28.5027 0.741946 27.9191 0.438141 27.2963 0.438141H2.07366Z" fill="#2F6BEB"/>
</svg>
