<svg width="256" height="256" viewBox="0 0 256 256" fill="none" xmlns="http://www.w3.org/2000/svg">
<path d="M233.796 85.5853C234.725 84.2597 233.776 82.4381 232.158 82.4381H207.158C206.506 82.4381 205.894 82.7565 205.52 83.291L136.934 181.245C136.006 182.57 136.954 184.392 138.572 184.392H163.572C164.225 184.392 164.836 184.074 165.21 183.539L233.796 85.5853Z" fill="#13DA92"/>
<path d="M190.482 85.6408C191.474 84.3227 190.533 82.4381 188.884 82.4381H162.222C161.594 82.4381 161.002 82.7334 160.624 83.2355L148.701 99.0789C147.709 100.397 148.649 102.282 150.299 102.282H176.96C177.589 102.282 178.18 101.986 178.558 101.484L190.482 85.6408Z" fill="#13DA92"/>
<path d="M22.0737 82.4381C20.5294 82.4381 19.6244 84.1766 20.5101 85.4416L89.224 183.578C89.5812 184.088 90.1648 184.392 90.7876 184.392H116.01L116.016 184.392H120.542C121.164 184.392 121.747 184.089 122.104 183.58L159.306 130.605C160.194 129.34 159.289 127.599 157.744 127.599H132.497C131.875 127.599 131.292 127.902 130.935 128.411L108.129 160.887C106.933 162.589 104.41 162.588 103.216 160.883L48.8599 83.2521C48.5027 82.7419 47.9191 82.4381 47.2963 82.4381H22.0737Z" fill="#2F6BEB"/>
</svg>
